<?xml version="1.0" encoding="UTF-8" standalone="no"?>
<!-- Created with Inkscape (http://www.inkscape.org/) -->

<svg
   xmlns:dc="http://purl.org/dc/elements/1.1/"
   xmlns:cc="http://creativecommons.org/ns#"
   xmlns:rdf="http://www.w3.org/1999/02/22-rdf-syntax-ns#"
   xmlns:svg="http://www.w3.org/2000/svg"
   xmlns="http://www.w3.org/2000/svg"
   xmlns:sodipodi="http://sodipodi.sourceforge.net/DTD/sodipodi-0.dtd"
   xmlns:inkscape="http://www.inkscape.org/namespaces/inkscape"
   width="653.16119"
   height="640.07709"
   id="svg4390"
   version="1.1"
   inkscape:version="0.48.4 r9939"
   sodipodi:docname="aslsc_logo.svg">
  <defs
     id="defs4392" />
  <sodipodi:namedview
     id="base"
     pagecolor="#ffffff"
     bordercolor="#666666"
     borderopacity="1.0"
     inkscape:pageopacity="0.0"
     inkscape:pageshadow="2"
     inkscape:zoom="0.7"
     inkscape:cx="346.5074"
     inkscape:cy="357.04306"
     inkscape:document-units="px"
     inkscape:current-layer="layer1"
     showgrid="false"
     fit-margin-top="0"
     fit-margin-left="0"
     fit-margin-right="0"
     fit-margin-bottom="0"
     inkscape:window-width="977"
     inkscape:window-height="1001"
     inkscape:window-x="116"
     inkscape:window-y="0"
     inkscape:window-maximized="0" />
  <metadata
     id="metadata4395">
    <rdf:RDF>
      <cc:Work
         rdf:about="">
        <dc:format>image/svg+xml</dc:format>
        <dc:type
           rdf:resource="http://purl.org/dc/dcmitype/StillImage" />
        <dc:title></dc:title>
      </cc:Work>
    </rdf:RDF>
  </metadata>
  <g
     inkscape:label="Layer 1"
     inkscape:groupmode="layer"
     id="layer1"
     transform="translate(-44.847964,-259.4665)">
    <path
       style="fill:#ffffff"
       d="m 434.30873,699.19678 c -4.5209,0.56755 -7.30179,0.5617 -15.03777,-0.0317 -5.10954,-0.39192 -9.01398,-0.46982 -12.00878,-0.23959 -0.70132,0.0539 -2.88154,0.60016 -5.32863,1.33507 l -4.14166,1.24383 -7.89919,0.88853 c -11.67528,1.31327 -15.79351,1.64412 -21.12725,1.69734 -7.3234,0.0731 -13.25999,-0.62081 -18.80688,-2.1982 -5.68323,-1.61615 -9.46911,-3.43556 -17.07334,-8.20505 -5.12064,-3.21175 -8.00085,-4.73749 -10.08657,-5.34325 -2.91593,-0.84686 -6.34504,-0.62841 -8.62201,0.54924 l -1.20294,0.62219 -1.80031,-0.3399 c -0.99017,-0.18694 -2.91124,-0.73935 -4.26905,-1.22758 -5.43924,-1.95583 -8.01501,-2.48525 -10.15027,-2.08634 -4.64594,0.86799 -10.13778,0.47179 -14.7331,-1.06289 -2.72939,-0.91153 -5.88041,-2.41769 -6.79192,-3.24649 -1.62993,-1.48203 -5.25095,-5.37178 -6.77916,-7.28227 -3.47938,-4.34974 -5.00252,-7.01389 -6.53873,-11.43699 -1.50274,-4.32673 -1.72281,-6.075 -1.36503,-10.84422 0.54038,-7.20336 1.67901,-11.11904 5.01897,-17.25991 3.52524,-6.48153 7.89866,-11.82763 17.48199,-21.37011 l 4.47255,-4.45348 1.65701,-0.40371 c 3.15995,-0.76985 6.95473,-2.93178 9.26347,-5.27749 1.47193,-1.4955 3.47821,-4.43866 4.72895,-6.93725 1.10569,-2.20882 1.76082,-3.83225 5.08466,-12.59999 1.77514,-4.68253 4.33444,-9.70083 6.06756,-11.89733 1.66448,-2.10952 3.66435,-3.89857 6.0899,-5.44796 3.90263,-2.49291 7.47443,-5.35786 13.95289,-11.19166 9.81001,-8.83384 14.09803,-12.00717 19.98464,-14.78957 2.68462,-1.26893 7.41076,-2.75616 10.19159,-3.20711 4.65701,-0.7552 5.64218,-0.72274 13.80865,0.45494 l 7.65105,1.10335 0.79052,0.81012 c 2.01278,2.06266 5.16366,3.82966 9.9555,5.583 9.25583,3.38672 11.87127,4.65185 14.32498,6.92922 1.40297,1.30213 3.14631,3.70502 3.49587,4.81844 0.10897,0.3472 0.85031,1.91914 1.64736,3.49324 2.88546,5.69852 4.27,10.06019 7.33928,23.12064 1.98795,8.45918 2.85333,11.5278 4.26695,15.13059 2.8646,7.30074 6.86328,12.97047 11.36611,16.11598 7.51013,5.24629 13.58402,13.14269 17.67833,22.98281 1.44984,3.48448 3.30059,10.07727 3.82219,13.61553 1.02535,6.95532 0.86404,14.49612 -0.39495,18.46289 -3.7235,11.73185 -8.27249,19.84673 -13.53836,24.15092 -2.30069,1.88052 -3.28069,2.36657 -7.70506,3.8215 -2.31461,0.76115 -4.44761,1.41394 -4.74001,1.45064 z m 40.06934,-80.37902 c -5.20715,1.25538 -10.20272,1.32636 -14.15573,0.20115 -8.742,-2.48838 -16.72782,-7.94274 -22.04637,-15.05781 -2.15879,-2.88799 -3.68846,-5.72701 -4.47605,-8.3074 -1.50155,-4.91959 -1.90268,-10.90837 -1.19783,-17.88352 0.36082,-3.57062 0.83294,-6.2665 2.55428,-14.58521 2.32666,-11.24401 3.12134,-16.5885 3.15328,-21.20698 0.0104,-1.50093 0.0581,-1.62661 1.49856,-3.94363 1.83946,-2.9589 3.15024,-4.78091 7.6249,-10.59878 4.34185,-5.6452 6.01162,-8.09062 7.90195,-11.57269 l 1.47258,-2.71255 1.49354,-0.878 c 1.99693,-1.17393 6.32287,-2.52179 8.35746,-2.60398 3.50879,-0.14175 6.17114,0.71673 9.144,2.94853 2.60605,1.9564 4.65336,4.22537 6.52863,7.23543 2.00966,3.22575 2.48966,4.30971 7.48818,16.90952 0.8689,2.19019 2.1134,5.05365 2.7656,6.36324 4.6983,9.43474 7.96867,20.88617 8.51987,29.83274 0.8835,14.33878 -2.98947,26.23365 -11.93497,36.65446 -3.33376,3.88359 -6.03768,5.94089 -10.09645,7.68194 -1.89903,0.81461 -2.54987,1.03039 -4.59542,1.52355 z M 280.0833,608.44624 c -3.48205,0.39754 -6.96874,0.26194 -14.48847,-0.56348 -1.60636,-0.17632 -4.13843,-0.3539 -5.62682,-0.39461 -2.30729,-0.0631 -2.97686,-0.18042 -4.54279,-0.79589 -6.57648,-2.58483 -11.96137,-7.29691 -15.68571,-13.72586 -1.40032,-2.41722 -3.38085,-8.22879 -3.87977,-11.38459 -0.44432,-2.81039 -1.12333,-10.78196 -1.2904,-15.14916 -0.4501,-11.76559 1.37996,-21.15645 5.49153,-28.17961 6.17608,-10.54965 13.73974,-19.96878 23.883,-29.74184 l 2.60199,-2.50702 1.90719,-0.25336 c 5.21181,-0.69236 10.72155,0.86106 15.32275,4.32012 1.32369,0.9951 4.43684,4.34454 5.89954,6.34729 2.29474,3.142 3.22346,5.09226 4.74006,9.95387 1.65567,5.30739 1.86144,6.49552 2.88969,16.68521 1.17839,11.67749 1.81432,15.62841 3.26526,20.28652 0.77513,2.48845 1.03634,4.01113 1.21077,7.05787 0.72771,12.7109 -4.21558,26.05056 -12.69683,34.2629 l -1.70967,1.65547 -2.89882,0.97782 c -1.86131,0.62785 -3.43342,1.03885 -4.3925,1.14835 z m 139.56494,-62.55516 c -2.94976,0.43827 -4.61953,0.39645 -5.97548,-0.14965 -13.88147,-5.5907 -23.40173,-12.82738 -28.70311,-21.81824 -2.57473,-4.3666 -3.98087,-8.35384 -4.07153,-11.5452 -0.0308,-1.08431 -0.29539,-6.52103 -0.58798,-12.0816 -0.85175,-16.1873 -0.77096,-22.22832 0.39718,-29.69828 0.6039,-3.86183 1.48964,-7.38611 2.75723,-10.97072 1.27334,-3.60092 4.65231,-10.44619 5.62778,-11.40101 0.499,-0.48844 1.44189,-0.98015 3.59791,-1.87628 2.4962,-1.03752 3.02652,-1.32968 3.64139,-2.00613 0.39582,-0.43547 0.68867,-0.89096 0.65078,-1.01219 -0.0482,-0.15431 0.52744,-0.35986 1.91936,-0.6853 5.59746,-1.30876 11.53761,-0.40295 17.1036,2.60814 3.56224,1.92709 7.9269,5.83355 8.48731,7.59636 0.73274,2.30455 2.76781,5.83153 6.986,12.107 3.52078,5.23792 4.19399,6.35056 5.48874,9.07124 1.94269,4.08218 2.75361,8.30216 2.34336,12.19468 -0.10361,0.98307 0.0309,1.56009 1.49955,6.43209 1.08325,3.59353 1.7396,6.13312 1.99753,7.72899 2.5718,15.91226 -1.43583,29.43934 -11.80194,39.83554 -2.61033,2.61791 -3.73322,3.31984 -7.19404,4.49704 -1.59307,0.54189 -3.46671,1.06998 -4.16364,1.17352 z m -88.13205,-0.20581 c -0.28933,0.0465 -1.37193,0.24189 -2.40579,0.4341 -4.09492,0.76134 -8.79196,0.69868 -11.17613,-0.14908 -1.64408,-0.58461 -4.73181,-2.20844 -6.25013,-3.28694 -5.86717,-4.16762 -11.15805,-12.45149 -12.14635,-19.01741 -0.59746,-3.96934 -0.39891,-6.95161 1.04864,-15.75069 1.31136,-7.97122 1.55626,-10.94326 1.17995,-14.31933 -0.16946,-1.52033 0.32046,-4.52606 1.06861,-6.55606 1.34225,-3.642 3.37747,-6.52238 8.70753,-12.3235 4.06916,-4.42877 5.50823,-6.25913 7.51117,-9.55342 3.46926,-5.70598 7.73781,-9.88625 13.28238,-13.00767 2.44293,-1.3753 8.59773,-3.24646 11.03718,-3.35549 4.71062,-0.21054 8.90994,0.88568 12.04425,3.1441 2.91789,2.10249 5.16691,4.41103 7.21616,7.40714 1.8146,2.65304 2.42936,3.93536 3.48081,7.26052 1.39147,4.40051 1.46979,5.68082 0.66328,10.84257 -0.72409,4.63426 -1.02378,7.77378 -1.55471,16.28734 -0.94583,15.16629 -1.86812,20.78628 -4.53919,27.65961 -2.6587,6.8415 -6.98718,12.63247 -12.63494,16.904 -3.43991,2.60169 -8.10164,4.90034 -12.86528,6.34373 -1.72777,0.52352 -3.37812,0.98993 -3.66744,1.03648 z"
       id="path4376"
       inkscape:connector-curvature="0" />
    <path
       style="fill:#ff6600"
       d="m 370.35805,899.27094 c -6.64397,-0.43779 -15.32629,-1.53288 -19.29405,-2.43355 -3.96775,-0.90067 -8.38249,-1.12615 -9.81056,-0.50106 -1.42808,0.62509 -5.30487,-0.67865 -8.61509,-2.89722 -3.5289,-2.36509 -9.4336,-4.0685 -14.27393,-4.11777 -5.53977,-0.0563 -9.34368,-1.32887 -11.56407,-3.86839 -4.33405,-4.957 -10.80031,-7.79995 -17.08069,-7.50968 -2.78291,0.12863 -5.64393,-1.10057 -6.35785,-2.73155 -1.79545,-4.10187 -14.80223,-11.8177 -17.74787,-10.52833 -1.32699,0.58085 -4.14724,-0.91765 -6.2672,-3.33001 -5.44218,-6.19277 -15.45787,-12.13864 -18.42519,-10.93822 -2.80713,1.13558 -10.32955,-4.3204 -10.50256,-7.61744 -0.14853,-2.83345 -13.53123,-10.97643 -18.25142,-11.10556 -2.05027,-0.0562 -4.01043,-0.45545 -4.35592,-0.88744 -0.34548,-0.43197 -2.25133,-3.13141 -4.23518,-5.99874 -3.40995,-4.9285 -4.17215,-5.12026 -13.95203,-3.51006 -23.93203,3.94023 -44.5272,-12.02699 -45.73512,-35.45795 -0.24356,-4.72455 -1.66565,-8.98384 -3.4489,-10.32976 -1.66896,-1.25965 -3.00781,-1.71373 -2.97525,-1.00906 0.0326,0.70466 -1.73757,0.42386 -3.93364,-0.62402 -2.19607,-1.04789 -4.04911,-3.1222 -4.11786,-4.60959 -0.17811,-3.85395 -10.22204,-14.25167 -13.61523,-14.09484 -1.56672,0.0724 -4.17329,-2.6625 -5.79237,-6.07759 -1.61909,-3.41509 -5.76215,-8.71474 -9.20683,-11.77699 -3.444658,-3.06226 -8.301598,-9.25304 -10.793178,-13.75728 -2.49159,-4.50425 -6.68506,-9.46333 -9.31883,-11.02016 -2.63377,-1.55683 -4.86666,-4.51812 -4.96199,-6.58065 -0.22462,-4.86004 -8.18902,-18.84321 -10.6673,-18.72867 -1.04975,0.0485 -2.0039,-1.97273 -2.12032,-4.49166 -0.29264,-6.33167 -4.67202,-17.21822 -7.87923,-19.58669 -1.58854,-1.17311 -2.81384,-5.94564 -3.04065,-11.84331 -0.20896,-5.43312 -1.620227,-11.89627 -3.136175,-14.36258 -3.443684,-5.60257 -5.602282,-60.16003 -2.626969,-66.39547 1.080241,-2.26387 1.887226,-8.60697 1.793307,-14.09575 -0.10592,-6.19044 1.145942,-12.13754 3.297055,-15.66294 1.907302,-3.12581 3.307052,-8.462 3.110552,-11.85818 -0.1965,-3.39617 1.09171,-7.999 2.86269,-10.22849 5.11075,-6.43398 7.12402,-12.07327 5.81294,-16.28234 -0.82399,-2.64537 0.26119,-5.17339 3.37645,-7.86571 5.37524,-4.6455 11.08251,-16.10898 9.31038,-18.70061 -1.76178,-2.57653 1.89609,-9.37032 5.85143,-10.8679 4.2261,-1.60011 11.55874,-13.97391 11.32158,-19.10513 -0.0982,-2.12388 1.85533,-5.08187 4.34109,-6.57332 5.747188,-3.44834 13.548718,-13.68158 14.281548,-18.73311 0.30973,-2.13499 2.54235,-4.98545 4.96139,-6.33436 7.15094,-3.98753 9.94295,-10.38938 9.72827,-22.30614 -0.36159,-20.07197 13.33543,-36.14634 32.09981,-37.67125 6.39366,-0.51959 10.15261,-1.88874 11.77865,-4.29021 1.31351,-1.9399 3.95603,-3.59955 5.87226,-3.68811 3.74275,-0.17298 9.01107,-5.65273 12.12622,-12.61285 1.05972,-2.36771 4.67282,-5.38404 8.02913,-6.70296 6.65157,-2.61383 15.75521,-10.47675 15.61605,-13.48776 -0.0479,-1.03733 3.33247,-2.9785 7.51204,-4.31373 4.74115,-1.51463 9.05067,-4.67932 11.45845,-8.41445 2.50581,-3.88722 5.55477,-6.06513 8.69393,-6.21022 6.05201,-0.27971 14.07617,-4.90352 18.43527,-10.62304 2.04501,-2.68321 4.56844,-3.9663 6.52463,-3.31756 1.75443,0.58184 7.54518,-1.26967 12.8683,-4.11445 5.32314,-2.84479 13.48807,-5.91574 18.1443,-6.82435 4.65624,-0.90861 10.2825,-2.73727 12.5028,-4.06368 9.02564,-5.39194 78.89224,-8.49043 88.46379,-3.92326 2.29509,1.09513 7.68561,1.8288 11.97895,1.63037 4.29334,-0.19843 8.42435,0.54341 9.18001,1.64854 1.65387,2.41871 10.00548,5.32609 16.91718,5.88925 2.76314,0.22514 8.48344,2.53061 12.71175,5.12328 4.22831,2.59268 9.64993,4.62327 12.04801,4.51242 2.39812,-0.11083 5.50309,1.05292 6.89998,2.58612 3.60984,3.96209 15.09245,10.0934 20.32416,10.85238 2.43929,0.35387 5.2299,1.92142 6.20138,3.48343 2.5038,4.02583 18.79651,13.85529 22.66901,13.67632 1.78245,-0.0824 3.72862,1.36518 4.32483,3.21681 0.59621,1.85163 5.32724,6.1947 10.51339,9.65126 5.18617,3.45656 10.5556,7.51038 11.93208,9.00848 1.614,1.75662 6.67164,2.63827 14.24326,2.48288 9.56952,-0.19639 13.29355,0.75195 20.13896,5.12846 11.06536,7.07448 17.08941,17.62104 17.87185,31.289 0.58037,10.13674 0.95565,10.84483 7.01426,13.23156 3.96173,1.56066 6.95578,4.39848 7.85643,7.44649 2.12728,7.19916 6.70819,12.91932 11.09323,13.85209 2.11298,0.44946 4.43883,2.41054 5.16854,4.35796 2.77724,7.41175 6.46737,12.85238 11.8674,17.49695 3.0755,2.64522 5.64316,5.92055 5.70592,7.27847 0.17693,3.82816 9.21923,15.60894 11.90605,15.51182 1.31963,-0.0473 3.03705,2.2999 3.81651,5.21688 2.61734,9.79473 6.00717,15.96511 9.75257,17.75228 2.05349,0.97985 3.81655,3.88413 3.93676,6.48497 0.26256,5.68088 4.53903,14.67463 8.21429,17.27536 1.46839,1.03907 3.08868,5.95851 3.60066,10.93209 0.51198,4.97357 2.25144,10.49392 3.86553,12.26742 1.61405,1.77349 3.21494,6.80886 3.55751,11.1897 0.68908,8.81183 3.14076,26.40382 5.6062,40.22699 1.05504,5.9154 0.84989,9.50444 -0.59997,10.49583 -1.32075,0.90309 -1.82766,5.50764 -1.26553,11.49535 0.60068,6.39853 -0.20455,12.84861 -2.2403,17.9453 -1.7479,4.37607 -2.98098,10.99255 -2.74015,14.70328 0.28504,4.39308 -1.08276,8.73333 -3.92096,12.4412 -2.39738,3.13193 -4.78751,8.98306 -5.31143,13.0025 -0.52392,4.01943 -2.77718,9.58884 -5.00725,12.37646 -5.31369,6.64219 -10.14603,15.39097 -10.01901,18.13908 0.0557,1.20421 -3.55111,6.77574 -8.01506,12.38115 -4.46392,5.60543 -8.52172,12.5241 -9.01733,15.37483 -0.50864,2.92573 -3.55728,7.00652 -6.99992,9.3698 -3.35434,2.30268 -7.69512,7.94141 -9.64613,12.53052 -1.95103,4.58909 -5.62361,9.40823 -8.16129,10.70914 -7.97782,4.08979 -11.74668,11.45764 -11.75195,22.97413 -0.006,12.80725 -5.93665,23.98125 -16.63233,31.33625 -5.54021,3.80977 -10.17215,5.14789 -19.87815,5.74258 -9.96695,0.6106 -12.75412,1.44572 -13.12251,3.93146 -0.25724,1.73587 -2.35714,3.825 -4.66643,4.64252 -5.22314,1.84905 -12.63156,9.12311 -12.48657,12.26012 0.15634,3.38275 -4.50392,7.10579 -9.68572,7.73782 -2.46013,0.29996 -7.41792,3.85405 -11.01732,7.89772 -3.59938,4.04369 -8.91127,8.05356 -11.80418,8.91081 -2.89292,0.85726 -8.17458,4.75587 -11.73702,8.66359 -3.56244,3.90769 -7.86499,7.16905 -9.56123,7.24744 -4.65042,0.21494 -13.7101,5.94788 -14.855,9.40017 -0.55587,1.67616 -3.1229,3.14516 -5.70449,3.26448 -4.30731,0.19908 -13.38864,4.01567 -20.40362,8.57499 -1.56375,1.01633 -7.6145,3.16534 -13.44609,4.77556 -5.8316,1.6102 -11.11062,3.79619 -11.73117,4.85773 -1.36115,2.32842 -38.69678,4.8224 -55.55941,3.71131 z m 10.67743,-7.48842 c -0.2642,-3.47754 -7.6844,-9.51324 -12.89065,-10.48543 -4.71885,-0.88116 -5.43656,-0.53606 -4.2974,2.06643 0.75214,1.71834 1.40605,3.9575 1.45313,4.97593 0.0976,2.11108 7.34005,4.98714 12.43066,4.93632 1.87832,-0.0187 3.36523,-0.69071 3.30426,-1.49325 z m 25.30564,-1.16959 c -0.3887,-4.28316 -8.38655,-9.8625 -13.78021,-9.61322 l -5.92888,0.27403 3.58837,5.67902 c 2.82675,4.47365 4.93239,5.61952 9.92072,5.39869 3.48275,-0.15511 6.2728,-0.93652 6.2,-1.73852 z m 21.8597,-10.60519 c -3.23833,-2.36073 -7.03513,-3.79895 -8.43738,-3.19603 -1.40223,0.60289 -4.25747,1.17512 -6.34498,1.2716 -3.68308,0.17023 -3.6654,0.33537 0.59732,5.57633 4.16277,5.1181 4.80332,5.27628 12.23287,3.02062 l 7.84004,-2.3803 -5.88787,-4.29222 z m -75.59807,4.53216 c -1.99163,-4.18467 -5.04626,-6.62839 -10.15643,-8.12522 l -7.30817,-2.14064 1.59845,6.08027 c 1.88892,7.18527 0.8353,6.10421 8.07773,8.28796 10.09249,3.04309 10.96938,2.58121 7.78842,-4.10237 z m 101.06265,-8.35179 5.42689,-2.35551 -5.89065,-3.20406 c -4.78408,-2.60219 -7.10449,-2.76969 -12.35247,-0.89169 l -6.46183,2.31239 5.66863,4.10668 c 3.11777,2.25866 6.23428,3.71991 6.9256,3.24718 0.69133,-0.4727 3.69905,-1.91946 6.68383,-3.21499 z m -127.8278,3.17414 c -0.2492,-5.39179 -2.9133,-8.99254 -8.58233,-11.59979 -5.53516,-2.54566 -5.73508,-2.47676 -5.53247,1.90715 0.23479,5.07995 3.83841,9.99718 8.33529,11.37375 4.91198,1.50362 5.91324,1.21238 5.77951,-1.68111 z m 64.99094,-5.60397 c 0.77044,-0.84097 6.36129,-1.85166 12.42412,-2.24595 13.34158,-0.86769 30.70979,-5.36376 36.42131,-9.42833 2.30258,-1.63861 5.37813,-3.03437 6.83453,-3.10168 4.48454,-0.20727 32.50856,-17.22013 35.09897,-21.30794 1.34396,-2.12083 4.00454,-3.9282 5.91241,-4.01638 3.52183,-0.16276 20.15989,-12.32543 32.58049,-23.8168 3.75368,-3.47285 9.80373,-8.64841 13.44456,-11.50124 11.06681,-8.67158 6.27003,-6.84145 -6.39126,2.43849 -27.9109,20.45693 -65.82151,36.92789 -103.27849,44.87125 -27.57947,5.84864 -78.02193,6.30148 -104.57218,0.93876 -22.14027,-4.47198 -40.31057,-10.00198 -55.87159,-17.00415 -5.71846,-2.57319 -10.38198,-4.34953 -10.3634,-3.94744 0.0426,0.92129 21.69869,13.94946 23.08125,13.88557 0.56155,-0.026 4.77332,2.41512 9.35952,5.42462 4.5862,3.00949 9.35172,5.42498 10.59008,5.36775 1.23834,-0.0572 5.30901,1.94063 9.04593,4.4397 3.7369,2.49907 9.87805,4.97601 13.647,5.50428 3.76894,0.52829 9.93951,2.85328 13.71234,5.16668 5.63076,3.45258 7.49775,3.76546 10.42111,1.74641 2.90126,-2.00381 4.60234,-1.77172 9.17719,1.25198 8.17703,5.40454 12.26004,6.29533 16.24377,3.54392 2.80744,-1.93901 4.50452,-1.83107 8.24476,0.52438 5.0257,3.165 11.93507,3.77944 14.23758,1.26612 z m 85.04012,-8.50979 c 3.77299,-2.24928 3.71836,-2.41154 -1.82693,-5.42516 -4.53748,-2.4659 -6.8144,-2.63302 -11.04135,-0.81035 l -5.32511,2.29618 4.58665,3.20413 c 5.37009,3.75143 8.28316,3.90884 13.60674,0.7352 z m -175.50973,0.907 c -0.90176,-4.51187 -2.93823,-7.12338 -7.01795,-8.99968 -5.72497,-2.63299 -5.74647,-2.6201 -5.47378,3.28003 0.21152,4.57653 1.73286,6.72085 6.69077,9.43063 3.52934,1.92897 6.56421,3.31332 6.74417,3.0763 0.17998,-0.23703 -0.24447,-3.29131 -0.94321,-6.78728 z m 196.84699,-15.28804 5.5677,-4.05091 -5.477,-1.79762 c -7.25791,-2.38214 -8.41961,-2.22858 -14.07196,1.86003 l -4.81501,3.48294 4.66346,2.31208 c 6.25029,3.09881 7.63384,2.92196 14.13281,-1.80652 z m -220.91866,3.77972 c -0.99527,-5.37545 -9.06702,-14.40085 -12.93485,-14.46308 -3.32207,-0.0534 1.7701,13.09316 6.47032,16.70456 7.10843,5.46178 7.84362,5.20686 6.46453,-2.24148 z m 244.56029,-22.51001 c -0.12844,-2.77919 -11.97432,-3.338 -15.73278,-0.74216 -4.92696,3.40287 -4.63022,4.44579 1.84293,6.47702 4.07937,1.2801 6.51715,0.96046 9.70321,-1.2723 2.34029,-1.64006 4.22428,-3.64822 4.18664,-4.46256 z m -267.51568,8.49915 c -0.0802,-4.51386 -1.86059,-7.05775 -8.06259,-11.51981 l -7.95968,-5.72668 1.44817,7.43262 c 0.93672,4.80756 3.37278,8.89174 6.89745,11.56398 7.06564,5.3568 7.79991,5.1894 7.67665,-1.75011 z m 159.99851,-11.42123 c 30.49565,-5.38633 78.36371,-23.74149 91.97735,-35.26904 l 4.59335,-3.88951 -29.45064,-26.96243 -29.45067,-26.96246 -5.40595,3.15882 c -2.97328,1.73735 -13.76878,5.75337 -23.99001,8.92448 -33.18473,10.29548 -76.89094,9.90966 -107.82265,-0.95185 l -11.46994,-4.0276 -26.17277,28.76086 c -14.39501,15.81847 -26.14327,29.39863 -26.10724,30.17812 0.10669,2.30823 33.74048,16.56895 49.86632,21.14329 14.61914,4.14694 39.47446,8.52434 53.06778,9.34608 14.2151,0.85932 46.37727,-0.97817 60.36507,-3.44876 z m 123.39571,-16.55812 c -5.20073,-1.56908 -6.9228,-1.20132 -11.40049,2.4347 l -5.27437,4.28295 6.53598,1.89227 c 5.67538,1.6431 7.17654,1.3225 11.40049,-2.43471 l 4.86449,-4.32696 -6.1261,-1.84825 z m -315.83899,0.10396 c -7.71193,-5.87261 -9.66459,-5.40797 -9.31223,2.21583 0.18649,4.03509 2.17735,6.66447 7.79748,10.29833 l 7.54704,4.87977 0.34518,-6.13732 c 0.27885,-4.9579 -0.94676,-7.12116 -6.37747,-11.25661 z m 337.31597,-12.39337 4.13786,-4.83362 -6.481,-0.64727 c -6.25687,-0.62489 -15.09197,3.58382 -14.92893,7.1116 0.0405,0.87712 2.50154,1.84855 5.46889,2.15877 2.96735,0.31018 5.90595,0.67201 6.53024,0.80406 0.62428,0.13202 2.99711,-1.93507 5.27294,-4.59354 z m 18.71486,-18.48469 4.18072,-4.88367 -6.00043,-1.03011 c -4.29211,-0.73686 -7.34162,0.0446 -10.7113,2.74498 -6.07979,4.87215 -5.93868,6.31593 0.68497,7.00835 2.96734,0.31019 5.90596,0.67202 6.53025,0.80406 0.62426,0.13203 3.01638,-1.95759 5.31579,-4.64361 z m 14.8743,-0.78918 c 3.84631,-4.21917 5.90541,-9.14759 3.78081,-9.04939 -0.32557,0.015 -3.42421,3.2333 -6.88587,7.15166 -3.46165,3.91837 -5.20537,7.07399 -3.87494,7.01251 1.33043,-0.0615 4.47143,-2.3632 6.97999,-5.11488 z m -425.83258,16.12156 c -2.60895,-2.26569 -3.98724,-2.83651 -3.06289,-1.2685 2.95258,5.0085 5.72483,7.67125 6.78079,6.51296 0.56409,-0.61876 -1.10897,-2.97878 -3.7179,-5.24446 z m 23.9042,-0.13875 c 2.78017,-3.37282 2.52262,-3.95275 -3.78701,-8.527 l -6.77008,-4.90808 -0.66605,6.29233 c -1.08815,10.28005 5.29071,14.33975 11.22314,7.14275 z m -20.89751,-15.5652 c -0.24398,-4.36345 -1.82985,-7.30056 -5.10656,-9.45756 -4.70081,-3.09446 -4.76033,-3.05973 -5.45138,3.18056 -0.53761,4.85471 0.30229,7.04054 3.64338,9.48176 6.16454,4.50424 7.31576,3.97067 6.91456,-3.20476 z m 17.72369,-4.53624 c -3.73204,-3.03667 -7.28049,-4.97829 -7.88546,-4.31471 -0.60496,0.66358 2.03044,3.59366 5.85643,6.51129 9.07596,6.92112 10.86039,4.98933 2.02903,-2.19658 z m 407.18048,-12.35908 c -0.0418,-0.90546 -1.90284,-3.15207 -4.13554,-4.99247 -3.9174,-3.22906 -4.19011,-3.21646 -7.79297,0.36018 -5.49901,5.45905 -4.49532,7.04118 4.21165,6.63875 4.28612,-0.1981 7.75872,-1.10101 7.71686,-2.00646 z m -21.31441,-4.19849 c 3.11366,-2.87571 4.36022,-5.08253 2.83104,-5.01185 -1.50274,0.0694 -4.68999,2.41322 -7.08281,5.20836 -2.39284,2.79515 -3.6668,5.05048 -2.83105,5.01185 0.83577,-0.0386 4.02301,-2.38239 7.08282,-5.20836 z m -427.80691,-5.23792 -5.46949,-5.23369 -1.13691,7.10505 c -0.9989,6.24255 -0.46175,7.6356 4.42482,11.47558 l 5.56173,4.37056 1.04468,-6.2419 c 0.85936,-5.13464 0.0744,-7.17031 -4.42483,-11.4756 z m 480.65168,-26.49052 6.29392,-7.1243 -7.58147,0.3504 c -5.57317,0.25759 -8.96486,1.80406 -12.80379,5.83805 -6.76292,7.10655 -6.50008,8.72096 1.36075,8.35765 4.79849,-0.22178 8.03851,-2.11069 12.73059,-7.4218 z m -473.41202,14.57663 c -19.009,-25.06624 -33.64829,-54.12226 -43.82341,-86.98066 -9.214418,-29.75605 -13.404048,-77.66899 -9.579788,-109.55543 4.492468,-37.45799 19.425068,-80.65807 38.183578,-110.46531 12.30174,-19.54742 5.88187,-13.69042 -8.66548,7.90573 -7.09249,10.52911 -14.04876,20.51501 -15.45838,22.19089 -1.40962,1.67589 -4.47536,7.08907 -6.81277,12.02929 -2.33741,4.94023 -6.463668,12.58318 -9.169478,16.98433 -2.70581,4.40117 -4.8405,9.7147 -4.74376,11.80783 0.0967,2.09316 -1.52427,5.79176 -3.60225,8.21912 -2.07798,2.42736 -4.14262,7.85091 -4.58809,12.0523 -0.44548,4.2014 -2.12754,9.30285 -3.73789,11.33654 -1.65482,2.08981 -2.78604,7.27321 -2.60161,11.92081 0.17991,4.53402 -1.12709,10.68185 -2.91337,13.70359 -1.78182,3.01422 -3.10204,8.74724 -2.9338,12.74006 0.16813,3.99281 0.35821,16.00116 0.4222,26.68523 0.064,10.68406 0.92272,20.31058 1.90815,21.39223 0.9855,1.08167 1.98741,6.19865 2.22648,11.37107 0.27016,5.84544 1.66164,10.64037 3.67691,12.67041 1.78323,1.7963 3.3639,5.82694 3.51258,8.95697 0.14876,3.13002 1.99367,8.24707 4.09997,11.37118 2.10631,3.12412 4.53972,8.04739 5.40758,10.94059 0.86786,2.89319 4.19592,8.01085 7.395708,11.37259 3.19979,3.36173 6.4571,8.27913 7.23849,10.92756 0.78138,2.64844 4.21723,7.59571 7.63523,10.99393 3.418,3.39821 6.24843,6.91185 6.28985,7.80805 0.0414,0.89622 8.01598,9.03957 17.72124,18.09638 17.88172,16.68693 24.20211,18.41227 12.91211,3.52472 z m 455.43854,-23.27134 c -0.0304,-0.65876 3.91306,-5.62974 8.76335,-11.04659 13.06848,-14.59504 24.40875,-31.60177 24.19249,-36.28085 -0.10473,-2.26586 1.84901,-5.59497 4.34163,-7.39802 5.04945,-3.6525 9.42051,-13.67124 7.31074,-16.75668 -0.75157,-1.09914 0.58998,-4.06956 2.98126,-6.60093 5.47002,-5.79047 8.90305,-14.57846 7.20795,-18.45108 -0.71368,-1.63046 0.21951,-4.80498 2.07376,-7.0545 2.04529,-2.48124 3.29647,-7.31026 3.18091,-12.27682 -0.10483,-4.50273 0.74877,-10.70347 1.89672,-13.77945 2.58419,-6.92438 2.49965,-9.82568 -0.36231,-12.43478 -1.61063,-1.46833 -1.68876,-3.1586 -0.28222,-6.10629 2.45606,-5.14722 2.13797,-13.48505 -0.57184,-14.99157 -1.19865,-0.66636 -1.66931,-3.9739 -1.1216,-7.88161 0.63499,-4.53008 -0.0882,-8.16007 -2.20996,-11.09336 -1.73458,-2.39798 -3.30413,-7.61317 -3.48791,-11.58933 -0.18377,-3.97614 -1.8358,-9.30537 -3.67119,-11.84269 -1.83538,-2.53735 -3.41996,-6.17797 -3.52129,-8.09025 -0.10205,-1.91225 -2.40113,-6.96863 -5.11071,-11.23633 -2.7096,-4.26768 -5.56181,-9.87225 -6.3383,-12.45456 -0.77648,-2.58232 -4.2116,-7.55374 -7.63362,-11.04761 -3.42209,-3.49386 -6.28705,-7.76195 -6.36667,-9.4846 -0.0797,-1.72267 -2.87954,-6.04758 -6.22207,-9.61089 -3.34251,-3.56334 -6.14479,-7.16646 -6.22727,-8.00695 -0.32541,-3.31566 -33.59892,-40.84106 -36.11057,-40.72498 -0.53142,0.0245 3.38403,5.77402 8.70101,12.77657 18.81467,24.77924 36.0956,61.37639 45.38402,96.11329 6.8243,25.52161 9.03223,83.42397 4.22378,110.76729 -6.07013,34.51777 -18.31281,67.64191 -35.4746,95.98105 -4.48217,7.40138 -7.71451,13.85352 -7.18298,14.3381 1.02562,0.93499 11.73152,-11.70105 11.63749,-13.73558 z m -480.85341,18.10942 c -4.86171,-6.07123 -6.10544,-5.82613 -7.35447,1.4494 -0.82316,4.79483 -0.0428,7.03402 3.72562,10.69129 l 4.76686,4.62617 1.2784,-6.07641 c 0.95927,-4.55959 0.35608,-7.22823 -2.41641,-10.69045 z m 291.06504,-5.75823 c 59.66809,-19.27976 104.27419,-72.49727 112.03664,-133.66576 2.15178,-16.95616 -1.11394,-54.78972 -6.06715,-70.28827 -5.75189,-17.99768 -21.32928,-44.54165 -34.56513,-58.89917 -16.70654,-18.12237 -32.76535,-29.40894 -56.08897,-39.42085 -25.52058,-10.95498 -44.92288,-14.36486 -72.83047,-12.79971 -88.26642,4.95032 -155.44855,79.45394 -151.36264,167.85808 3.63052,78.55111 61.24794,141.24372 140.82141,153.22556 13.68006,2.05988 54.13888,-1.51293 68.05631,-6.00988 z m -309.3265,-14.87034 -3.62903,-5.01699 -2.28761,6.23128 c -2.0685,5.63446 -1.84545,6.77508 2.32882,11.90897 l 4.61644,5.67769 1.30021,-6.89198 c 0.99486,-5.2734 0.44794,-8.07022 -2.32883,-11.90897 z m 534.77484,-21.49019 c -5.39998,-0.28702 -7.40676,0.81405 -11.65709,6.39597 l -5.13417,6.74268 5.48903,0.94065 c 4.5628,0.78193 6.52979,-0.29789 11.65709,-6.39598 l 6.16806,-7.33663 -6.52292,-0.34669 z m -36.74971,-23.03454 c 29.35307,-72.08134 22.00206,-162.16454 -18.54636,-227.27646 l -5.72915,-9.19976 -27.39467,29.99937 -27.3947,29.99935 4.97082,10.77765 c 16.14022,34.99483 18.7453,91.12316 5.88464,126.78993 l -3.96902,11.00746 29.70268,27.33203 29.70267,27.33201 3.55043,-6.41629 c 1.95271,-3.52898 6.10287,-12.68435 9.22258,-20.34529 z m -421.21701,16.7014 25.80869,-28.3645 -6.83107,-17.90597 C 189.23903,604.43161 188.02752,565.13274 200.4001,523.42129 l 3.63864,-12.26696 -29.7651,-27.25035 -29.76513,-27.25032 -7.30068,16.36179 c -30.11074,67.4822 -29.60368,146.65283 1.36231,212.70386 7.99447,17.05238 17.25016,32.4584 19.43967,32.3572 0.71618,-0.0331 12.91606,-12.82421 27.11083,-28.42466 z m -90.662148,7.74729 c -3.47458,-6.96206 -4.71001,-6.89489 -7.34382,0.39936 -1.78758,4.95064 -1.52086,6.72128 1.77072,11.75474 l 3.87533,5.92611 2.23221,-6.26831 c 1.82032,-5.11173 1.72171,-7.29119 -0.53441,-11.81189 z m 562.876268,-14.5485 c 0.16196,-0.30603 1.73765,-3.11542 3.50153,-6.24312 3.82173,-6.77665 3.57978,-7.11852 -3.96755,-5.60633 -3.94956,0.79132 -7.14657,3.38532 -9.89025,8.02476 l -4.05417,6.85543 7.05798,-1.23716 c 3.88189,-0.68046 7.1905,-1.48757 7.35246,-1.79358 z m -575.762678,4.51164 c 2.59883,-4.39654 2.62679,-6.03601 0.20261,-11.88085 l -2.81225,-6.78049 -3.88219,5.35878 c -3.66458,5.0584 -3.69524,5.72529 -0.54676,11.89677 1.83449,3.59588 3.4903,6.53082 3.67958,6.52207 0.18927,-0.009 1.70084,-2.31107 3.35901,-5.11628 z M 673.23192,651.70702 c 1.89213,-3.62796 3.10266,-6.87446 2.6901,-7.21444 -0.41255,-0.33998 -3.4566,-0.0764 -6.76457,0.58582 -4.52958,0.90673 -6.73355,2.91059 -8.92717,8.11663 l -2.91274,6.91264 6.2371,-0.9022 c 4.67962,-0.6769 7.0961,-2.54932 9.67728,-7.49845 z m -600.913298,1.1621 c -1.78808,-7.76881 -2.81055,-8.23558 -7.28615,-3.32623 -3.51119,3.85148 -3.61617,4.93016 -1.1166,11.47222 l 2.75897,7.22102 3.47264,-4.85616 c 2.35953,-3.29961 3.05545,-6.66869 2.17114,-10.51085 z M 681.10467,628.98248 c 4.26319,-13.22711 4.2593,-13.24152 -2.8779,-10.68491 -5.02335,1.7994 -6.95601,3.90552 -8.26814,9.01021 -1.67467,6.51512 -1.58657,6.65609 3.99818,6.39797 4.13738,-0.19122 6.10655,-1.49243 7.14786,-4.72327 z M 66.231952,627.28651 c -0.35144,-7.6039 -2.10121,-8.02394 -7.33633,-1.7611 -2.82508,3.3797 -3.48206,6.2362 -2.52323,10.97096 l 1.29638,6.40153 4.43132,-4.56608 c 2.94318,-3.03269 4.33076,-6.74196 4.13186,-11.04531 z M 686.31845,604.57274 c 0.99712,-0.61123 2.81767,-14.5214 1.89497,-14.47876 -0.15606,0.007 -2.88971,1.46719 -6.07496,3.24439 -4.03988,2.25406 -5.96654,4.98521 -6.37058,9.03075 -0.53651,5.37189 -0.21368,5.69436 4.37858,4.37369 2.7268,-0.78418 5.50419,-1.76071 6.17199,-2.17007 z m -627.551808,7.55537 c 3.16823,-2.29174 4.5736,-5.16491 4.39686,-8.98903 -0.29639,-6.41275 -1.58097,-6.7988 -7.47908,-2.24768 -2.71591,2.09567 -4.09657,5.25016 -3.92477,8.9672 0.30707,6.64405 0.75763,6.78998 7.00699,2.26951 z m 629.648908,-40.77437 -0.31898,-6.90149 -5.65236,4.43195 c -4.09909,3.21404 -5.57919,6.01538 -5.38606,10.19403 l 0.26631,5.76209 5.70503,-3.29256 c 4.71006,-2.71832 5.6494,-4.49619 5.38606,-10.19402 z M 59.800642,586.97325 c 2.18284,-1.68435 4.23551,-5.73284 4.56146,-8.99664 0.68886,-6.89731 0.81995,-6.84417 -6.48481,-2.62836 -4.30514,2.48464 -5.54829,4.58635 -5.34278,9.03275 0.30194,6.5328 1.57205,6.98591 7.26613,2.59225 z M 686.50788,548.2355 c -0.68176,-2.13776 -1.28898,-4.69665 -1.34939,-5.6864 -0.0613,-0.98973 -2.20642,0.36079 -4.76894,3.00124 -2.86018,2.94715 -4.55984,6.94891 -4.40199,10.36424 l 0.25714,5.56344 5.75135,-4.67782 c 4.14913,-3.37465 5.40604,-5.76065 4.51183,-8.5647 z m -5.75554,-24.78545 -1.71473,-5.39927 -4.35603,5.08844 c -3.33982,3.90138 -3.98838,6.31118 -2.78006,10.32968 l 1.57599,5.24123 4.49478,-4.93039 c 3.59195,-3.94007 4.15036,-6.01492 2.78005,-10.32969 z M 63.376272,561.00119 c 2.46352,-0.83915 8.02282,-14.57157 6.32775,-15.63059 -0.24052,-0.15035 -3.06589,0.57103 -6.2786,1.6029 -4.73129,1.5196 -6.17518,3.40768 -7.59839,9.936 -1.5606,7.15843 -1.40938,7.89679 1.35211,6.60172 1.71007,-0.80199 4.49879,-1.93151 6.19713,-2.51003 z m 609.158148,-59.7645 c -1.92776,-7.17761 -3.18937,-7.3348 -7.41281,-0.92372 -2.54973,3.87043 -2.73335,5.89914 -0.91335,10.09223 l 2.27788,5.24802 3.83139,-4.20269 c 2.97213,-3.2602 3.4693,-5.5508 2.21689,-10.21384 z M 71.035312,534.69237 c 1.68649,-0.098 6.08513,-9.76162 5.93378,-13.03626 -0.0111,-0.24055 -2.70237,0.24165 -5.98058,1.07143 -4.38869,1.11092 -6.60616,3.26784 -8.40943,8.17983 -2.39065,6.51197 -2.34576,6.63823 1.88185,5.29322 2.38199,-0.75782 5.34047,-1.43652 6.57438,-1.50822 z M 662.73893,482.91305 c -0.0631,-1.0709 -1.3906,-4.01664 -2.94875,-6.54614 l -2.83301,-4.59909 -2.62714,5.63237 c -2.04384,4.3818 -2.10054,6.85362 -0.25537,11.13279 l 2.37177,5.5004 3.20414,-4.58664 c 1.76226,-2.52265 3.15203,-5.46281 3.08836,-6.53369 z M 84.716972,503.34882 c 2.69929,-6.40611 2.68628,-6.90895 -0.14663,-5.66894 -1.70976,0.74839 -4.64964,1.43193 -6.53308,1.51899 -1.88342,0.087 -4.52146,2.62507 -5.8623,5.64005 -1.34084,3.01498 -2.67782,5.97714 -2.97107,6.58256 -0.29325,0.60545 2.41077,0.61845 6.00894,0.0289 5.24156,-0.85881 7.13096,-2.46938 9.50414,-8.10155 z m 562.025128,-49.00038 -4.05173,-6.75649 -2.52854,6.04598 c -2.26271,5.41032 -2.12316,6.79619 1.32726,13.1815 l 3.85579,7.13553 2.72449,-6.42501 c 2.52098,-5.94512 2.42185,-6.92967 -1.32727,-13.18151 z M 97.511472,478.28187 c 3.704938,-6.20301 4.086638,-7.79298 1.61061,-6.70917 -1.78478,0.78121 -5.20368,1.51094 -7.59756,1.62157 -3.00955,0.1391 -5.52863,2.54052 -8.1643,7.78298 l -3.81178,7.58184 6.55368,-1.07382 c 5.10587,-0.83658 7.62639,-2.86976 11.40935,-9.2034 z M 631.74129,433.48679 c -4.76529,-5.95643 -5.85732,-5.68831 -6.9854,1.71515 -0.64003,4.20034 0.15807,7.74955 2.45737,10.92823 l 3.40523,4.70759 2.35969,-6.42767 c 2.08191,-5.67098 1.9363,-6.95695 -1.23689,-10.9233 z m -519.33711,20.17046 4.08741,-6.99815 -6.47036,0.29905 c -4.91054,0.22696 -7.43379,1.73654 -10.466748,6.26192 -5.18906,7.7424 -5.0683,8.12738 2.431628,7.7521 5.07805,-0.25423 7.13941,-1.70143 10.41807,-7.31492 z m 504.50125,-31.4203 c 1.06355,-4.47938 0.48951,-6.78859 -2.53228,-10.1867 -4.51409,-5.07632 -4.82987,-4.90292 -5.99726,3.29327 -0.56379,3.95847 0.26024,7.56515 2.34568,10.26796 3.71678,4.81682 4.31672,4.48946 6.18386,-3.37453 z m -487.08548,7.31497 c 2.77602,-3.82927 5.03443,-7.241 5.01869,-7.58163 -0.0157,-0.34063 -3.10791,-0.4643 -6.87148,-0.27483 -5.22426,0.26293 -7.90847,1.7792 -11.34794,6.40993 -5.93063,7.9847 -5.7077,9.04962 1.82163,8.70155 4.88242,-0.2257 7.48713,-1.88639 11.3791,-7.25502 z m 470.47666,-29.84408 c -0.0653,-5.16017 -7.72691,-12.10937 -8.78902,-7.97176 -0.38665,1.50633 -1.10817,4.23893 -1.60335,6.07247 -0.49518,1.83353 1.0771,5.62178 3.49399,8.41831 4.07328,4.71317 4.48767,4.81009 5.67221,1.32674 0.70283,-2.06681 1.25462,-5.59742 1.22617,-7.84576 z m -275.78435,7.12984 c 30.60769,-7.81928 72.05031,-6.6188 100.08314,2.89914 l 12.0306,4.08475 27.27689,-29.97066 c 21.16379,-23.25383 26.68223,-30.40602 24.62351,-31.91334 -4.44364,-3.25351 -25.76051,-12.16617 -40.44068,-16.90841 -68.36665,-22.08497 -149.15291,-12.98114 -208.49911,23.49583 l -12.05011,7.40657 29.99858,27.39396 29.99858,27.39398 10.77764,-4.97083 c 5.92769,-2.73396 17.71812,-6.7439 26.20096,-8.91099 z m 252.32029,-33.87227 -4.66411,-4.36801 -1.02248,7.29481 c -0.84798,6.04976 -0.21417,8.08035 3.71351,11.89735 l 4.73603,4.60255 0.95058,-7.52935 c 0.78853,-6.24577 0.15546,-8.27399 -3.71353,-11.89735 z m -21.89672,4.16885 c -3.55002,-3.23635 -7.10793,-5.1676 -7.9065,-4.29164 -0.79856,0.87595 1.60158,4.0772 5.33361,7.11389 8.82886,7.18386 10.97111,4.83399 2.57289,-2.82225 z m -384.78003,19.2724 c 2.88422,-2.78392 4.28322,-5.04503 3.10892,-5.02469 -1.17432,0.0203 -4.58117,2.34542 -7.57081,5.16684 -2.98963,2.82142 -4.38865,5.08253 -3.10893,5.02469 1.27973,-0.0578 4.6866,-2.38291 7.57082,-5.16684 z m -13.18218,0.72329 c 1.75433,-2.32436 1.01636,-3.04761 -3.98589,-3.90638 -7.51446,-1.29004 -8.95787,-0.0699 -4.60818,3.89553 4.04942,3.69164 5.81429,3.69387 8.59407,0.0108 z m 401.62407,-40.85582 c -2.82071,-2.57149 -3.51901,-2.47617 -6.97198,0.95169 l -3.83728,3.80941 6.68473,6.31043 6.68477,6.31044 0.28723,-7.26213 c 0.18316,-4.63133 -0.84836,-8.29736 -2.84747,-10.11984 z m -387.09726,24.56572 c 3.58301,-4.14776 3.729,-4.97724 1.03325,-5.87123 -5.85544,-1.94188 -11.94632,-0.64749 -15.1305,3.21545 -3.03202,3.67834 -2.92579,3.92624 2.39637,5.59232 7.54172,2.36089 7.00929,2.49451 11.70088,-2.93654 z m -22.95041,-2.53222 c 5.04178,-6.64477 4.18816,-8.95425 -1.24165,-3.35931 -4.40619,4.54018 -5.90113,8.08234 -3.36153,7.96497 0.63189,-0.0293 2.70332,-2.10175 4.60318,-4.60566 z m 426.18453,-19.12072 c -1.40473,-2.03388 -2.91391,-3.30323 -3.35375,-2.82078 -0.7964,0.8736 3.72411,6.61969 5.15573,6.55352 0.41363,-0.0191 -0.39724,-1.69884 -1.80198,-3.73274 z M 236.50599,340.56648 c 18.89841,-10.60831 44.01177,-20.63384 67.0961,-26.7855 23.29431,-6.20761 83.394,-8.98965 107.05044,-4.95532 34.0328,5.80376 69.80828,18.43732 95.02298,33.55586 10.02545,6.01119 11.74721,6.57231 9.15022,2.98207 -3.35159,-4.6335 -16.9644,-13.95094 -20.16606,-13.80296 -1.02407,0.0473 -2.96629,-1.5129 -4.31604,-3.46717 -1.34973,-1.95427 -6.47568,-5.27564 -11.39098,-7.38082 -4.91532,-2.10518 -9.96648,-4.95764 -11.22484,-6.33879 -1.25837,-1.38115 -6.51333,-4.2378 -11.67772,-6.34811 -5.16437,-2.1103 -12.53427,-5.3399 -16.37754,-7.17688 -3.84328,-1.83698 -7.96767,-2.96206 -9.16533,-2.50017 -1.19765,0.46188 -4.22356,-0.45675 -6.72422,-2.04142 -2.50069,-1.58467 -11.7509,-4.698 -20.55604,-6.91851 -30.34703,-7.65303 -83.3221,-3.977 -107.10934,7.43251 -3.22305,1.54592 -9.54755,4.089 -14.05445,5.65127 -4.50692,1.56229 -9.11179,4.056 -10.23305,5.54161 -1.12127,1.48561 -3.53444,2.77024 -5.36259,2.85473 -3.11136,0.14381 -9.27969,4.04287 -27.59919,17.44573 -11.71474,8.57071 -24.41075,18.77174 -28.37175,22.79621 -1.97813,2.00982 -6.34247,6.0236 -9.69855,8.91952 -10.86838,9.37819 -6.31438,8.7361 6.78917,-0.95723 7.00867,-5.18465 20.02212,-13.51263 28.91878,-18.50663 z m 287.51679,11.11345 c -0.0496,-1.07153 -1.0185,-1.90533 -2.15327,-1.85288 -1.13477,0.0525 -1.48086,0.94702 -0.76909,1.98794 0.71177,1.04093 1.68074,1.87473 2.15327,1.85289 0.47253,-0.0219 0.81862,-0.91642 0.76909,-1.98795 z m -335.5449,10.87691 c 3.63173,-4.24236 3.73805,-4.95167 0.88426,-5.89809 -5.45222,-1.80814 -8.92014,-0.9847 -13.87031,3.29343 -3.35515,2.89964 -3.9507,4.3086 -2.03757,4.82049 1.4868,0.39782 4.0386,1.10113 5.67068,1.56291 4.79957,1.35799 5.03808,1.26161 9.35294,-3.77874 z m 347.55024,-22.93947 c 0.54126,-0.9736 -2.07725,-3.889 -5.81892,-6.47867 l -6.80301,-4.7085 -0.92856,6.09401 c -0.68787,4.51442 -0.0211,6.69534 2.57264,8.41393 3.45794,2.29125 8.74747,0.69118 10.97785,-3.32077 z m -328.07699,4.49988 5.23078,-4.70074 -6.64327,-1.70762 c -5.79896,-1.49059 -7.29522,-1.09224 -11.77305,3.13441 -3.44636,3.25305 -4.27757,5.06781 -2.5329,5.53004 1.42826,0.37841 3.93218,1.06583 5.56425,1.52761 4.49515,1.27186 4.55223,1.25059 10.15419,-3.7837 z m 305.09576,-17.79936 c -0.27133,-5.13982 -1.8392,-7.29354 -8.33907,-11.45562 l -8.00483,-5.12575 0.28095,6.45894 c 0.21365,4.91831 1.8539,7.65441 6.87546,11.47074 8.50489,6.46364 9.59159,6.30415 9.18751,-1.34831 z m -284.3521,0.19742 5.34893,-3.89249 -6.32963,-1.88362 c -5.19,-1.54449 -7.31378,-1.2392 -11.79577,1.69566 -7.94916,5.2052 -6.8394,6.79051 5.46764,7.8105 1.07794,0.0893 4.36691,-1.58918 7.30883,-3.73005 z M 486.92683,309.9535 c -0.25399,-5.07318 -1.70123,-7.13926 -7.28675,-10.40143 -3.8335,-2.23892 -7.28264,-4.05632 -7.66477,-4.03865 -0.38211,0.0176 -0.0325,3.09465 0.77676,6.83776 1.01305,4.6853 3.34781,7.91894 7.49387,10.37899 3.31229,1.96534 6.2418,3.56899 6.51,3.56367 0.26821,-0.005 0.34512,-2.85848 0.17089,-6.34034 z m -236.51018,-3.38619 c -6.43187,-3.18411 -8.93813,-2.98339 -14.6888,1.17635 l -4.81982,3.48641 6.60325,1.93224 c 5.26264,1.53996 7.73581,1.31062 12.18177,-1.12966 l 5.57849,-3.06192 -4.85489,-2.40342 z m 211.24698,-10.3503 c -1.02926,-4.14163 -3.42421,-7.05103 -7.25426,-8.81251 -5.66502,-2.60539 -5.7153,-2.57706 -5.45412,3.07379 0.19892,4.30393 1.84984,6.60799 6.72802,9.38976 3.55543,2.02748 6.70121,3.42657 6.99065,3.10908 0.28945,-0.31749 -0.16504,-3.35954 -1.01029,-6.76012 z m -185.77332,0.6539 c 0.7291,-0.64223 -1.20506,-2.46862 -4.29814,-4.05867 -4.95061,-2.54495 -6.3901,-2.52627 -12.02608,0.1561 l -6.40231,3.04709 5.92321,3.2569 c 5.64847,3.10584 11.5005,2.2695 16.80332,-2.40142 z m 163.55693,-9.68585 c -0.79284,-4.08045 -2.95306,-6.70741 -7.07429,-8.60281 -7.16731,-3.29632 -7.89061,-2.727 -6.0328,4.74861 0.96271,3.87383 3.18302,6.38973 6.7103,7.60361 7.66675,2.63846 7.64094,2.65358 6.39679,-3.74941 z m -141.23053,0.80259 c 1.94018,-1.16013 1.24917,-2.47924 -2.82255,-5.38812 -4.58619,-3.27641 -6.15687,-3.48109 -10.5131,-1.36993 -2.81674,1.36507 -5.45369,2.73674 -5.85987,3.04814 -0.40619,0.31141 1.4386,2.2074 4.09954,4.2133 4.61662,3.4802 8.65932,3.34539 15.09598,-0.50339 z m 117.08202,-6.93825 c -0.27367,-4.97498 -2.67631,-7.68 -8.5276,-9.60046 -5.15963,-1.69346 -5.17322,-1.67056 -2.8534,4.80563 2.04164,5.69956 4.18585,7.40792 10.09678,8.04441 0.8094,0.0872 1.38729,-1.37516 1.28422,-3.24958 z m -22.15687,-6.74621 c -1.92304,-4.45969 -4.04752,-6.08778 -8.56721,-6.56539 -7.53512,-0.79625 -7.63545,-0.67489 -4.49958,5.44216 1.57363,3.06961 4.96439,5.57027 8.6662,6.39122 3.34461,0.74173 6.27836,1.19417 6.51942,1.00544 0.24105,-0.18873 -0.71242,-3.01177 -2.11883,-6.27343 z m -72.70147,7.533 c 2.65216,-1.1609 2.61487,-1.76385 -0.36379,-5.88166 -2.85315,-3.94439 -4.30048,-4.3637 -10.31482,-2.98835 -9.15851,2.09435 -9.30518,2.36444 -3.62155,6.66929 5.00245,3.78891 9.19703,4.43443 14.30013,2.20072 z m 48.64127,-10.13333 c -2.50386,-4.48766 -4.5658,-5.65616 -10.18994,-5.77462 l -7.05088,-0.1485 3.70673,5.66077 c 2.6103,3.98631 5.48044,5.75665 9.70311,5.98495 3.29802,0.17829 6.21546,0.22953 6.48323,0.11384 0.26775,-0.11568 -0.92575,-2.74209 -2.65225,-5.83644 z m -24.44678,0.81036 c -3.57957,-4.40106 -5.39293,-5.07639 -11.11382,-4.13905 l -6.83631,1.12011 4.57625,4.44121 c 3.05816,2.96791 6.74497,4.34096 11.11382,4.13904 l 6.53756,-0.30216 -4.2775,-5.25915 z"
       id="path3781"
       inkscape:connector-curvature="0" />
  </g>
</svg>
